<?xml version="1.0" encoding="UTF-8"?>
<svg width="32px" height="32px" viewBox="0 0 32 32" version="1.1" xmlns="http://www.w3.org/2000/svg"
    xmlns:xlink="http://www.w3.org/1999/xlink">
    <title>logo_qingyun</title>
    <defs>
        <polygon id="path-1" points="0 0 17.6047994 0 17.6047994 16.1677212 0 16.1677212"></polygon>
        <polygon id="path-3" points="0 0.123525 0.5 0.123525 0.5 0.376475 0 0.376475"></polygon>
        <polygon id="path-5" points="0 0 24.3696649 0 24.3696649 24.8367019 0 24.8367019"></polygon>
    </defs>
    <g id="页面-1" stroke="none" stroke-width="1" fill="none" fill-rule="evenodd">
        <g id="logo_qingyun">
            <rect id="矩形备份" x="0" y="0" width="32" height="32"></rect>
            <g id="编组备份" transform="translate(1.000000, 3.000000)">
                <g id="编组" transform="translate(0.000000, 8.669660)">
                    <mask id="mask-2" fill="white">
                        <use xlink:href="#path-1"></use>
                    </mask>
                    <g id="Clip-2"></g>
                    <path
                        d="M17.6047994,16.1677446 L8.08387232,16.1677446 C3.6262611,16.1677446 0,12.5412492 0,8.08387232 C0,3.62649542 3.6262611,0 8.08387232,0 C12.5412492,0 16.1677446,3.62649542 16.1677446,8.08387232 L12.4187024,8.08387232 C12.4187024,5.69362358 10.4741211,3.74904224 8.08387232,3.74904224 C5.69362358,3.74904224 3.74904224,5.69362358 3.74904224,8.08387232 C3.74904224,10.4741211 5.69362358,12.4187024 8.08387232,12.4187024 L17.6047994,12.4187024 L17.6047994,16.1677446 Z"
                        id="Fill-1" fill="#3D87FF" mask="url(#mask-2)"></path>
                </g>
                <g id="编组" transform="translate(7.911979, 24.660954)">
                    <mask id="mask-4" fill="white">
                        <use xlink:href="#path-3"></use>
                    </mask>
                    <g id="Clip-4"></g>
                    <path
                        d="M0.13325,0.376525 L0.36675,0.376525 C0.28825,0.376525 0.21125,0.371525 0.13325,0.370525 L0.13325,0.376525 Z"
                        id="Fill-3" fill="#0FB8AD" mask="url(#mask-4)"></path>
                </g>
                <g id="编组" transform="translate(5.630335, 0.000000)">
                    <mask id="mask-6" fill="white">
                        <use xlink:href="#path-5"></use>
                    </mask>
                    <g id="Clip-6"></g>
                    <path
                        d="M11.9510094,0 C6.27050746,0 1.47196771,3.83527021 0,9.05135954 C0.774177222,8.80415706 1.59826357,8.66966017 2.45351383,8.66966017 C3.00392009,8.66966017 3.54167334,8.72542718 4.06185295,8.83086899 C5.42908179,5.8363215 8.44987257,3.74904224 11.9510094,3.74904224 C16.7315069,3.74904224 20.6206696,7.63820493 20.6206696,12.4187024 C20.6206696,17.1991999 16.7315069,21.0883626 11.9510094,21.0883626 L11.9744409,21.0883626 L11.9744409,24.8367019 C18.8112881,24.8238145 24.3697118,19.2585957 24.3697118,12.4187024 C24.3697118,5.57084245 18.798635,0 11.9510094,0"
                        id="Fill-5" fill="#00CCC2" mask="url(#mask-6)"></path>
                </g>
                <path
                    d="M29.9922676,24.3687745 C25.2117701,24.3687745 21.3226074,20.4793775 21.3226074,15.6991144 L25.0716497,15.6991144 C25.0716497,18.4122494 27.2791326,20.6197323 29.9922676,20.6197323 L29.9922676,24.3687745 Z"
                    id="Fill-7" fill="#00CCC2"></path>
            </g>
        </g>
    </g>
</svg>